<svg xmlns="http://www.w3.org/2000/svg">
  <g transform="translate(150,150) scale(2) translate(-150,-150)">
    <path d="M203,140 C206,359 245,6 248,212" fill="none" stroke="blue" stroke-width="3"/>
    <path d="M177,204 C441,204 8,149 265,154" fill="none" stroke="green" stroke-width="3"/>
    <polyline points="203, 140 203.384521484375, 158.88998413085938 203.966796875, 174.635498046875 204.733642578125, 187.44363403320312 205.671875, 197.521484375 206.20114135742188, 201.60126876831055 206.768310546875, 205.07614135742188 207.37173461914062, 207.97198867797852 208.009765625, 210.314697265625 208.68075561523438, 212.13015365600586 209.383056640625, 213.44424438476562 210.11502075195312, 214.28285598754883 210.875, 214.671875 211.66134643554688, 214.63718795776367 212.472412109375, 214.20468139648438 213.30654907226562, 213.40024185180664 214.162109375, 212.249755859375 215.03744506835938, 210.77910995483398 215.930908203125, 209.01419067382812 216.84085083007812, 206.98088455200195 217.765625, 204.705078125 219.653076171875, 199.52951049804688 221.580078125, 193.694580078125 223.533447265625, 187.40737915039062 225.5, 180.875 227.466552734375, 174.30453491210938 229.419921875, 167.903076171875 231.346923828125, 161.87771606445312 233.234375, 156.435546875 235.069091796875, 151.78366088867188 236.837890625, 148.129150390625 237.69345092773438, 146.74062728881836 238.527587890625, 145.67910766601562 239.33865356445312, 144.97047805786133 240.125, 144.640625 240.88497924804688, 144.71543502807617 241.616943359375, 145.22079467773438 242.31924438476562, 146.18259048461914 242.990234375, 147.626708984375 243.62826538085938, 149.57903671264648 244.231689453125, 152.06546020507812 244.79885864257812, 155.11186599731445 245.328125, 158.744140625 246.266357421875, 167.86984252929688 247.033203125, 179.649658203125 247.615478515625, 194.29067993164062 248, 212" fill="none" stroke="white"/>
    <polyline points="177, 204 199.75033569335938, 203.84237670898438 218.670654296875, 203.383544921875 226.77392196655273, 203.04775619506836 234.01492309570312, 202.64456176757812 240.4254035949707, 202.17659378051758 246.037109375, 201.646484375 250.88178634643555, 201.05686569213867 254.99118041992188, 200.41036987304688 258.3970375061035, 199.7096290588379 261.131103515625, 198.957275390625 263.22512435913086, 198.15594100952148 264.7108459472656, 197.30825805664062 265.23551511764526, 196.8678584098816 265.6200141906738, 196.4168586730957 265.8683114051819, 195.95558786392212 265.984375, 195.484375 265.8356742858887, 194.5134391784668 265.2056579589844, 193.50668334960938 264.12607192993164, 192.46673965454102 262.628662109375, 191.396240234375 260.745174407959, 190.2978172302246 258.5073547363281, 189.17410278320312 255.94694900512695, 188.02772903442383 253.095703125, 186.861328125 246.64767456054688, 184.47897338867188 239.417236328125, 182.048095703125 231.65835571289062, 179.58975219726562 223.625, 177.125 215.57113647460938, 174.67489624023438 207.750732421875, 172.260498046875 200.41775512695312, 169.90286254882812 193.826171875, 167.623046875 190.88776779174805, 166.51890182495117 188.22994995117188, 165.44210815429688 185.88446426391602, 164.3952980041504 183.883056640625, 163.381103515625 182.25747299194336, 162.40215682983398 181.03945922851562, 161.46109008789062 180.26076126098633, 160.5605354309082 179.953125, 159.703125 179.98587560653687, 159.29142141342163 180.14829635620117, 158.8914909362793 180.4443554878235, 158.50366258621216 180.87802124023438, 158.12826538085938 182.17404556274414, 157.41608047485352 184.068115234375, 156.757568359375 186.59197616577148, 156.1553611755371 189.77737426757812, 155.61209106445312 193.65605545043945, 155.13039016723633 198.259765625, 154.712890625 203.6202507019043, 154.36222457885742 209.76925659179688, 154.08102416992188 216.73852920532227, 153.87192153930664 224.559814453125, 153.737548828125 242.88540649414062, 153.70352172851562 265, 154" fill="none" stroke="white"/>
    <circle cx="203.293" cy="154.384" r="2" stroke="red" fill="none"/>
    <circle cx="203.832" cy="171.001" r="2" stroke="red" fill="none"/>
    <circle cx="206.540" cy="203.678" r="2" stroke="red" fill="none"/>
    <circle cx="218.244" cy="203.394" r="2" stroke="red" fill="none"/>
    <circle cx="226.370" cy="177.967" r="2" stroke="red" fill="none"/>
    <circle cx="234.306" cy="153.719" r="2" stroke="red" fill="none"/>
    <circle cx="244.541" cy="153.726" r="2" stroke="red" fill="none"/>
    <circle cx="247.234" cy="184.696" r="2" stroke="red" fill="none"/>
    <circle cx="247.771" cy="201.436" r="2" stroke="red" fill="none"/>
  </g>
</svg>
